<svg id="Layer_1" data-name="Layer 1" xmlns="http://www.w3.org/2000/svg" viewBox="0 0 1080 1080"><defs><style>.cls-1{fill:#446668;}.cls-1,.cls-2{stroke:#182828;stroke-miterlimit:10;stroke-width:20px;}.cls-2{fill:#749592;}.cls-3{fill:#ededed;}</style></defs><path class="cls-1" d="M1041,540c0-106.11-29.65-169.34-45.45-195.52a29.4,29.4,0,0,0-25.2-14.13H109.65a29.4,29.4,0,0,0-25.2,14.13C68.65,370.66,39,433.89,39,540c0,99.59,30.06,166.43,45.79,194.57a29.46,29.46,0,0,0,25.75,15.08H969.46a29.46,29.46,0,0,0,25.75-15.08C1010.94,706.43,1041,639.59,1041,540Z"/><path class="cls-2" d="M253.76,533.53v13.59a8.59,8.59,0,0,1-8.58,8.59H194a8.59,8.59,0,0,0-8.59,8.58v51.17a8.58,8.58,0,0,1-8.58,8.58H163.25a8.58,8.58,0,0,1-8.59-8.58V564.29a8.59,8.59,0,0,0-8.59-8.58H94.89a8.59,8.59,0,0,1-8.59-8.59V533.53a8.58,8.58,0,0,1,8.59-8.59h51.18a8.6,8.6,0,0,0,8.59-8.59V465.17a8.58,8.58,0,0,1,8.59-8.59h13.57a8.58,8.58,0,0,1,8.58,8.59v51.18a8.6,8.6,0,0,0,8.59,8.59h51.19A8.58,8.58,0,0,1,253.76,533.53Z"/><circle class="cls-2" cx="968.01" cy="540.31" r="25.69" transform="translate(279.62 1409.27) rotate(-80.78)"/><circle class="cls-2" cx="853.19" cy="540.31" r="25.69" transform="translate(183.19 1295.94) rotate(-80.78)"/><circle class="cls-2" cx="910.6" cy="482.9" r="25.69" transform="translate(288.07 1304.39) rotate(-80.78)"/><circle class="cls-2" cx="910.6" cy="597.72" r="25.69" transform="translate(174.74 1400.82) rotate(-80.78)"/><rect class="cls-2" x="300.43" y="389.28" width="468.9" height="301.44" rx="5"/><path class="cls-3" d="M374.38,514.84v-73h43.77v14.59H389v14.59h29.18v14.59H389v29.18Zm43.77-58.36h14.6v14.59h-14.6Z"/><path class="cls-3" d="M476.52,500.25H505.7v14.59H461.93v-73h14.59Z"/><path class="cls-3" d="M535.23,514.84V456.48h14.6v14.59H579V456.48H593.6v58.36H579V485.66H549.83v29.18Zm14.6-73v14.59H579V441.89Z"/><path class="cls-3" d="M622.43,441.89H637v14.59H622.43ZM637,456.48h14.6v14.59H637Zm14.6,58.36V471.07h14.59v43.77Zm14.59-58.36H680.8v14.59H666.21Zm14.59-14.59h14.59v14.59H680.8Z"/><path class="cls-3" d="M374,642.74V562.05h20.18v20.17H434.5V562.05h20.17v80.69H434.5V602.39H394.15v40.35Zm20.18-100.87v20.18H434.5V541.87Z"/><path class="cls-3" d="M494.54,642.74V541.87h60.52v20.18H514.71v20.17h40.35v20.17H514.71v40.35Zm40.34-40.35h20.18v20.18H534.88Zm20.18-40.34h20.17v20.17H555.06Zm0,60.52h20.17v20.17H555.06Z"/><path class="cls-3" d="M615.58,642.74V541.87H676.1v20.18H635.75v60.52H676.1v20.17Zm80.7-80.69v60.52H676.1V562.05Z"/></svg>