<svg id="Layer_1" data-name="Layer 1" xmlns="http://www.w3.org/2000/svg" viewBox="0 0 1080 1080"><defs><style>.cls-1{fill:#749592;}.cls-2{fill:#fff;}.cls-3{fill:#3f3d56;}.cls-4{fill:#ffb8b8;}.cls-5{fill:#293c43;}.cls-6{fill:#2f2e41;}</style></defs><path class="cls-1" d="M568.13,121H89.24A61.31,61.31,0,0,0,28,182.24V744.56A61.3,61.3,0,0,0,89.24,805.8H568.13a61.31,61.31,0,0,0,61.25-61.24V182.24A61.32,61.32,0,0,0,568.13,121Z"/><path class="cls-2" d="M568.13,138.63H89.24a43.67,43.67,0,0,0-43.61,43.61V744.56a43.66,43.66,0,0,0,43.61,43.61H568.13a43.66,43.66,0,0,0,43.62-43.61V182.24A43.67,43.67,0,0,0,568.13,138.63Z"/><path class="cls-1" d="M496.06,302.14H253.89a10.2,10.2,0,1,1,0-20.4H496.06a10.2,10.2,0,0,1,0,20.4Z"/><path class="cls-1" d="M538.13,336.56H253.89a10.2,10.2,0,0,1,0-20.4H538.13a10.2,10.2,0,0,1,0,20.4Z"/><path class="cls-1" d="M496.06,456.39H253.89a10.2,10.2,0,1,1,0-20.4H496.06a10.2,10.2,0,0,1,0,20.4Z"/><path class="cls-1" d="M538.13,490.81H253.89a10.2,10.2,0,0,1,0-20.4H538.13a10.2,10.2,0,0,1,0,20.4Z"/><path class="cls-1" d="M496.06,610.64H253.89a10.2,10.2,0,1,1,0-20.39H496.06a10.2,10.2,0,1,1,0,20.39Z"/><path class="cls-1" d="M538.13,645.06H253.89a10.2,10.2,0,1,1,0-20.39H538.13a10.2,10.2,0,1,1,0,20.39Z"/><path class="cls-1" d="M199.64,352.18h-85.7a4.89,4.89,0,0,1-4.89-4.89V271a4.89,4.89,0,0,1,4.89-4.89h85.7a4.89,4.89,0,0,1,4.89,4.89v76.28A4.89,4.89,0,0,1,199.64,352.18Z"/><path class="cls-1" d="M199.64,506.44h-85.7a4.9,4.9,0,0,1-4.89-4.89V425.26a4.89,4.89,0,0,1,4.89-4.89h85.7a4.89,4.89,0,0,1,4.89,4.89v76.29A4.9,4.9,0,0,1,199.64,506.44Z"/><path class="cls-1" d="M199.64,660.69h-85.7a4.89,4.89,0,0,1-4.89-4.89V579.51a4.89,4.89,0,0,1,4.89-4.89h85.7a4.89,4.89,0,0,1,4.89,4.89V655.8A4.89,4.89,0,0,1,199.64,660.69Z"/><path class="cls-1" d="M910.41,652.82l3.8-33.22,19-166.59,3.8-33.23A61.32,61.32,0,0,0,883.17,352L450.92,302.55a61.31,61.31,0,0,0-67.8,53.89v.09L356.48,589.39v.09a61.32,61.32,0,0,0,53.89,67.8L842.6,706.71A61.32,61.32,0,0,0,910.41,652.82Z"/><path class="cls-2" d="M892.89,650.82l4.5-39.35L915,457.13l4.5-39.35a43.67,43.67,0,0,0-38.38-48.29L448.92,320.07a43.66,43.66,0,0,0-48.28,38.37v.09L374,591.4v.08a43.67,43.67,0,0,0,38.37,48.29l432.25,49.42A43.66,43.66,0,0,0,892.89,650.82Z"/><path class="cls-1" d="M822.14,439.67l-240.6-27.51a10.2,10.2,0,0,1,2.31-20.27h0l240.61,27.52a10.2,10.2,0,1,1-2.32,20.26Z"/><path class="cls-1" d="M860,478.65l-282.4-32.29a10.2,10.2,0,0,1,2.31-20.27h0l282.4,32.29A10.2,10.2,0,0,1,860,478.65Z"/><path class="cls-1" d="M852.15,546.85l-416.34-47.6A10.2,10.2,0,0,1,438.12,479l416.35,47.61a10.2,10.2,0,1,1-2.31,20.26Z"/><path class="cls-1" d="M849.58,581.2,431.9,533.44a10.2,10.2,0,1,1,2.31-20.26L851.9,560.94a10.2,10.2,0,1,1-2.32,20.26Z"/><path class="cls-1" d="M844.49,613.86l-416.35-47.6A10.2,10.2,0,0,1,430.46,546h0L846.81,593.6a10.2,10.2,0,0,1-2.32,20.26Z"/><path class="cls-1" d="M841.92,648.21,424.23,600.45a10.2,10.2,0,1,1,2.32-20.26L844.24,628A10.2,10.2,0,0,1,842,648.22Z"/><path class="cls-3" d="M1020.64,935.9H742a1.27,1.27,0,0,1,0-2.54h278.69a1.27,1.27,0,1,1,0,2.54Z"/><path class="cls-4" d="M916,449.73a11.94,11.94,0,0,0,8.63,14.5,12.18,12.18,0,0,0,2.08.33l8.62,25.87,17-1.4-12.69-36.36A12,12,0,0,0,916,449.73Z"/><path class="cls-5" d="M929,619.14h0a15.37,15.37,0,0,0,25.42-8l13.46-61.69a60.86,60.86,0,0,0-1.57-31.79L950.58,469a5.1,5.1,0,0,0-6.42-3.27,4.3,4.3,0,0,0-.7.29l-10.29,5.15a5.09,5.09,0,0,0-2.61,6l1,3.57a171.5,171.5,0,0,1,1.31,91L924.53,604A15.37,15.37,0,0,0,929,619.14Z"/><polygon class="cls-4" points="875.14 922.59 860.6 922.59 853.68 866.48 875.15 866.48 875.14 922.59"/><path class="cls-6" d="M850.2,918.43h28.06V936.1H832.54a17.67,17.67,0,0,1,17.66-17.67Z"/><polygon class="cls-4" points="953.56 922.59 939.01 922.59 932.09 866.48 953.57 866.48 953.56 922.59"/><path class="cls-6" d="M928.62,918.43h28.06V936.1H911A17.67,17.67,0,0,1,928.62,918.43Z"/><circle class="cls-4" cx="910.95" cy="492.42" r="31.26"/><path class="cls-4" d="M804.08,696.26a11.92,11.92,0,0,1,15.39-9.9l17.47-20.94,15.31,7.51-25.08,29.22a12,12,0,0,1-23.09-5.89Z"/><path class="cls-6" d="M918.56,523.67a33.35,33.35,0,1,0-6.24-65.95c-6.88-4.17-14.87-7-22.88-6.27s-15.93,5.47-18.92,12.94.22,17.3,7.67,20.33c4.77,1.94,10.16,1,15.26.22s10.65-1.3,15.08,1.33,6.43,9.68,2.46,13a13.67,13.67,0,0,0-3.92,15C909.06,519.44,914.51,523.59,918.56,523.67Z"/><path class="cls-6" d="M957.34,695l5.55,210.41a5.09,5.09,0,0,1-5,5.22h-.39l-18.27-.93a5.08,5.08,0,0,1-4.76-4.28L912.78,768.77a2.54,2.54,0,0,0-5-.16L878.38,900.19a5.09,5.09,0,0,1-6.08,3.86,5.72,5.72,0,0,1-.59-.17l-18.13-1.11a5.11,5.11,0,0,1-3.37-5.16L866,693Z"/><path class="cls-5" d="M966.24,595.08c3.06-31.88-20.39-60.72-52.34-63-13.76-1-35.13-1.33-42.18,16.72-21.22,54.35,15.93,53,3.13,100.13s-24.11,49.79-6.54,53.19,96.54,23.48,93.3-9.67C959.62,672.09,963.19,626.89,966.24,595.08Z"/><path class="cls-5" d="M878,543.28h0a15.37,15.37,0,0,1,20.74,16.77l-10,62.34a60.86,60.86,0,0,1-13.06,29l-32.4,39.48a5.08,5.08,0,0,1-7.16.7,4.68,4.68,0,0,1-.56-.53l-7.69-8.54a5.08,5.08,0,0,1-.25-6.51l2.26-2.95a171.41,171.41,0,0,0,34.42-84.21l4-33.07A15.35,15.35,0,0,1,878,543.28Z"/><path class="cls-5" d="M531.73,370.21l-85.15-9.74a4.89,4.89,0,0,0-5.41,4.3l-8.67,75.8a4.9,4.9,0,0,0,4.31,5.41L522,455.72a4.9,4.9,0,0,0,5.42-4.31L536,375.62A4.9,4.9,0,0,0,531.73,370.21Zm-11.67,42.91A37,37,0,0,1,491.22,445a3.74,3.74,0,0,1-1.51-2.89c.14-1.35.3-2.12,1-7.95s.12-8.08-2.42-10.11c8.56.1,14-1.38,17.23-6.67l.3-.51c.25-.46.49-.95.49-.95l.44-1a31.91,31.91,0,0,0,1.81-7.44c.9-8-2.63-11.28-3.22-12.69,1.78-5.93.83-8.84.34-9.85-2.09-1-7.81,1.12-11,2.73-4.66-2-14.86-3-18.86-1.79-6.47-5.82-10.29-5.48-10.29-5.48a14.77,14.77,0,0,0-1.84,10.5c-2.66,2.68-4.62,4.56-5.25,10.07a25.81,25.81,0,0,0,.25,8.45l.13.56.49,1.6.23.57c2.1,5.08,6.86,8.64,15.38,10.44a7.36,7.36,0,0,0-3.45,4.4,9.59,9.59,0,0,1-7.13-.25c-3.27-1.45-3.8-8.26-9-7.89-1.12.08-1,.82-.11,1.54a10,10,0,0,1,3.57,5.36c.63,2.13,2,6,7.75,6.63a25.56,25.56,0,0,0,3.9.17s-.55,5.2-.78,7.21a3.53,3.53,0,0,1-2.2,2.52,36.93,36.93,0,1,1,52.59-29.15Z"/></svg>