<svg id="Layer_1" data-name="Layer 1" xmlns="http://www.w3.org/2000/svg" viewBox="0 0 1080 1080"><defs><style>.cls-1{fill:#2f2e41;}.cls-2{fill:#ffb6b6;}.cls-3{fill:#aaa;}.cls-4{fill:#3f3d56;}.cls-5{fill:#fff;}.cls-6{fill:#e6e6e6;}.cls-7{fill:#f2f2f2;}.cls-8{fill:#749592;}</style></defs><path class="cls-1" d="M409.45,321.73a5.54,5.54,0,0,1-6.25,1.82,8.33,8.33,0,0,1-1-.36,41.18,41.18,0,0,0-.53-11.57,31,31,0,0,1-2.37,9.52,12.79,12.79,0,0,1-2.55-3.64,32.5,32.5,0,0,1-2.32-8.76c-1.75-10.27-3.47-20.95-.62-31,4.17-14.66,17.32-25.19,22.81-39.42l2.7-2.42c4.64,7.88,4.84,17.68,2.95,26.63s-5.66,17.37-8.65,26-5.24,17.84-3.85,26.88C410.1,317.57,410.59,319.91,409.45,321.73Z"/><polygon class="cls-2" points="349.31 445.75 331.68 526.4 408.7 551.49 397.37 445.75 349.31 445.75"/><path class="cls-3" d="M892.81,873.77h34.91v-160A155.94,155.94,0,0,0,772,558H447.6A155.94,155.94,0,0,0,291.84,713.76v160h34.9V764.46A157.4,157.4,0,0,1,484,607.25H735.61a157.38,157.38,0,0,1,157.2,157.21Z"/><path class="cls-4" d="M719.22,440H645.34A4,4,0,0,0,641.4,444V560.66h81.76V444a3.94,3.94,0,0,0-3.94-3.95Zm-36.69,66.31a8.76,8.76,0,0,1-8.73-8.72V484.13a8.73,8.73,0,1,1,17.45,0h0v13.46A8.76,8.76,0,0,1,682.53,506.31Z"/><path class="cls-4" d="M841.55,257.87H525.75a10.25,10.25,0,0,0-10.24,10.23V481.21a10.24,10.24,0,0,0,10.24,10.23h315.8a10.24,10.24,0,0,0,10.24-10.23V268.1A10.25,10.25,0,0,0,841.55,257.87Z"/><path class="cls-5" d="M838.92,265.26H528.39a5.49,5.49,0,0,0-5.48,5.48V478.57a5.49,5.49,0,0,0,5.48,5.47H838.92a5.47,5.47,0,0,0,5.47-5.47V270.74A5.49,5.49,0,0,0,838.92,265.26Z"/><path class="cls-4" d="M641.15,556.92v11.26a2.19,2.19,0,0,0,2.2,2.2h77.86a2.21,2.21,0,0,0,2.21-2.2V556.92Z"/><path class="cls-4" d="M778.43,574.3H593.68a3.4,3.4,0,0,1-3.4-3.4,3.34,3.34,0,0,1,.08-.7l2.86-13.61a3.42,3.42,0,0,1,3.33-2.7h179a3.42,3.42,0,0,1,3.32,2.7l2.87,13.61a3.41,3.41,0,0,1-2.63,4A3.26,3.26,0,0,1,778.43,574.3Z"/><rect class="cls-6" x="597.86" y="556.34" width="5.69" height="3.41" rx="0.71"/><rect class="cls-6" x="609.24" y="556.34" width="5.69" height="3.41" rx="0.71"/><rect class="cls-6" x="620.62" y="556.34" width="5.69" height="3.41" rx="0.71"/><rect class="cls-6" x="632" y="556.34" width="5.69" height="3.41" rx="0.71"/><rect class="cls-6" x="643.38" y="556.34" width="5.69" height="3.41" rx="0.71"/><rect class="cls-6" x="654.76" y="556.34" width="5.69" height="3.41" rx="0.71"/><rect class="cls-6" x="666.14" y="556.34" width="5.69" height="3.41" rx="0.71"/><rect class="cls-6" x="677.52" y="556.34" width="5.69" height="3.41" rx="0.71"/><rect class="cls-6" x="688.9" y="556.34" width="5.69" height="3.41" rx="0.71"/><rect class="cls-6" x="700.28" y="556.34" width="5.69" height="3.41" rx="0.71"/><rect class="cls-6" x="711.66" y="556.34" width="5.69" height="3.41" rx="0.71"/><rect class="cls-6" x="723.04" y="556.34" width="5.69" height="3.41" rx="0.71"/><rect class="cls-6" x="734.42" y="556.34" width="5.69" height="3.41" rx="0.71"/><rect class="cls-6" x="745.8" y="556.34" width="5.69" height="3.41" rx="0.71"/><rect class="cls-6" x="757.18" y="556.34" width="5.69" height="3.41" rx="0.71"/><rect class="cls-6" x="768.56" y="556.34" width="5.69" height="3.41" rx="0.71"/><rect class="cls-6" x="597.73" y="562.03" width="5.69" height="3.41" rx="0.71"/><rect class="cls-6" x="609.11" y="562.03" width="5.69" height="3.41" rx="0.71"/><rect class="cls-6" x="620.49" y="562.03" width="5.69" height="3.41" rx="0.71"/><rect class="cls-6" x="631.87" y="562.03" width="5.69" height="3.41" rx="0.71"/><rect class="cls-6" x="643.25" y="562.03" width="5.69" height="3.41" rx="0.71"/><rect class="cls-6" x="654.63" y="562.03" width="5.69" height="3.41" rx="0.71"/><rect class="cls-6" x="666.01" y="562.03" width="5.69" height="3.41" rx="0.71"/><rect class="cls-6" x="677.39" y="562.03" width="5.69" height="3.41" rx="0.71"/><rect class="cls-6" x="688.77" y="562.03" width="5.69" height="3.41" rx="0.71"/><rect class="cls-6" x="700.15" y="562.03" width="5.69" height="3.41" rx="0.71"/><rect class="cls-6" x="711.53" y="562.03" width="5.69" height="3.41" rx="0.71"/><rect class="cls-6" x="722.91" y="562.03" width="5.69" height="3.41" rx="0.71"/><rect class="cls-6" x="734.29" y="562.03" width="5.69" height="3.41" rx="0.71"/><rect class="cls-6" x="745.67" y="562.03" width="5.69" height="3.41" rx="0.71"/><rect class="cls-6" x="757.05" y="562.03" width="5.69" height="3.41" rx="0.71"/><rect class="cls-6" x="768.43" y="562.03" width="5.69" height="3.41" rx="0.71"/><rect class="cls-6" x="652.35" y="568.86" width="45.52" height="3.41" rx="0.71"/><path class="cls-7" d="M792.62,317.43V426.82A27.63,27.63,0,0,1,765,454.44H628.09a27.66,27.66,0,0,1-25.37-16.64,26,26,0,0,1-1.63-5.09,25.18,25.18,0,0,0,9.12,1.7H747.12a25.5,25.5,0,0,0,25.46-25.47V299.56a25,25,0,0,0-1.69-9.13,25.75,25.75,0,0,1,5.08,1.64A27.63,27.63,0,0,1,792.62,317.43Z"/><polygon class="cls-2" points="281.85 752.64 268.27 761.05 228.27 711.88 248.31 699.47 281.85 752.64"/><path class="cls-1" d="M293.58,770.21l-10.93,4.87-6.55-9.44-.39,12.54-29,12.93a7.13,7.13,0,0,1-9-10.22l16-26.3-4.65-10.43,25-9.41Z"/><path class="cls-1" d="M243.81,743.18,266.75,721c-17-42.05-18.4-68.11-42-119,56,11.47,96.12,10.77,142.47.49,15.69-3.42,56.18-34.7,52.85-50.73-.16-.75-.34-1.5-.55-2.23-5-17-1.47-42.94-12.24-61.77-19.93-7.51-50.2,17.86-73.87,33.32-11.42,7.45-3.06,17.61-11.59,20.28L289.1,552l-80.21-13a29.7,29.7,0,0,0-33.82,24.92c0,.07,0,.15,0,.22-.13.87-.23,1.75-.29,2.63,3.69,20.42,7.54,40.32,11.68,59.2,1.33,6.09-.92,17.78,4.11,17.95s3,12.26,4.56,18.17C204.73,698.48,210.83,716.08,243.81,743.18Z"/><polygon class="cls-2" points="199.92 840.67 185.77 833.28 208.15 773.99 229.03 784.89 199.92 840.67"/><path class="cls-1" d="M197.56,796.4,220.24,812C248,771.81,266.1,718.08,279.54,658c52.35-22.83,98.15-49,130.07-84a30.3,30.3,0,0,0-1.75-42.14c-.56-.53-1.14-1-1.74-1.51-13.82-11-44.53-4.67-64.15-13.88L306.91,565l4,11.3-12.2,5.93-10.29,5L276.66,593,238,611.76a29.67,29.67,0,0,0-13.28,39.8c0,.07.07.15.11.22.39.79.82,1.56,1.27,2.31l-14.35,71.5s3.95,12.45-2.26,11.28S206.68,751,206.68,751Z"/><path class="cls-1" d="M191.35,873.35l-10.61-5.54,3.34-11L174,864.29l-28.12-14.68a7.13,7.13,0,0,1,2.42-13.4l30.56-3.79,5.28-10.12L207,836Z"/><path class="cls-2" d="M500.56,562.5l-16.54-40-13,7.24,7.87,40.68a14.49,14.49,0,1,0,21.71-7.94Z"/><path class="cls-2" d="M222.92,246.31l25.17,35.2,11.06-10-16.89-37.84a14.48,14.48,0,1,0-19.34,12.65Z"/><path class="cls-8" d="M336.6,469.39c-16.33,25.33,43.5,80.52,75,67.61,5.52-2.26,24.49-9.72,11.52-20.07s1.5,1.23,1.85-5.5c.23-4.5-3.26-14.38.38-14s5.72-10.1-2.2-12.78a15.38,15.38,0,0,1-10.14-13c-.76-27.77,8.64-56.75,8.64-56.75L460,513s-.29,17,4.61,11.79,4.53,11.6,4.53,11.6,7.28,5.08,3.1,7.9,4.5,11.52,4.5,11.52l20.28-1.45s-.32-15.06-3.78-18.39-1.76-8.58-1.76-8.58-7.14-6.64-3-14.45-30.35-147.69-30.35-147.69a37.25,37.25,0,0,0-26.6-28.42l-21.9-6-3.89-15.43H375l-5.37,10.14-49.25-4.35s-48.73-44.34-46.35-47.8-5.18-11.56-5.18-11.56-6.45-2.12-2.81-3.24-3.24-3.74-3.24-3.74-6.37-1.67-3.36-3.88-10-3.65-10-3.65l-16.92,13.8,3.42,5.8s-2.08,7.89.64,5,3.23,5.48,3.23,5.48,1.39,9.16,9.63,11.92,14.48,29,14.48,29l69.53,57.94c-10.59,12.16-8.07,24.87,1.31,37.87Z"/><circle class="cls-2" cx="389.68" cy="271.74" r="33.4"/><path class="cls-1" d="M418.83,261.79c-.85.25-13.39,1.89-18.82,2.9s-6.26-5.79-10.62-4.52a.11.11,0,0,0,0-.08,40.89,40.89,0,0,0-3.43-10.39,31,31,0,0,1,.25,9.56l0,.25c0,.14-.05.27-.06.42-4.61-2-7.53-.22-10.72.42-3.56.71-6.34,2.27-4.34,14.48,4.09,25.12,25.42,34.08,21.72,50.7-.72,3.28-2.55,7.4-4.84,8.43a40.89,40.89,0,0,0-3.43-10.39,30.67,30.67,0,0,1,.25,9.56c-3.55-3.84-6.11-17.25-18.05-27.88-2.94-2.61-17.67-18.08-19.44-21.73a46.09,46.09,0,0,1,.78,8.85,42.14,42.14,0,0,1-.4,5.94,2.45,2.45,0,0,1,0,.38c0,.23-.06.43-.09.65s-.07.48-.12.72c-4.82-.69-9.09-1.53-11.11-3.5-9.79-9.53,2.16-28.1,8.69-44.9,9.35-24.06,36.48-27.26,39.11-27.53,11.62-1.17,31.25,1.32,37.66,14.49C426.22,247.85,423.35,260.49,418.83,261.79Z"/><path class="cls-1" d="M348.42,267.23l24.19-37.64a37.22,37.22,0,0,0-19.1-5A23.75,23.75,0,0,0,336,232.86C331,239,330.18,247.68,332,255.34c.64,2.64,12.81-6.67,9.92-2.32-2.38,3.4-6.27,17.7-7.25,21.73-1.57,6.47-5.88,13.12-2,18.57,4.55,6.43,12.66,9.63,20.54,10s15.62-1.86,23.11-4.33Z"/><path class="cls-8" d="M357.71,265.74a1.45,1.45,0,0,1-.39-2.84c.38-.63.22-3.26.1-5.4-.47-8-1.26-21.39,11.74-30.43a1.45,1.45,0,0,1,1.65,2.38h0c-11.67,8.11-11,20-10.5,27.88.26,4.51.46,7.76-2.27,8.38A1.84,1.84,0,0,1,357.71,265.74Z"/><path class="cls-3" d="M123.43,872.5a1.4,1.4,0,0,0,1.39,1.4H962.61a1.4,1.4,0,0,0,0-2.79H124.83a1.39,1.39,0,0,0-1.4,1.38h0Z"/><path class="cls-8" d="M656.48,355.58H634.56a2.19,2.19,0,1,1,0-4.38h21.92a2.19,2.19,0,0,1,0,4.38Z"/><path class="cls-8" d="M695.93,355.58H674a2.19,2.19,0,1,1,0-4.38h21.92a2.19,2.19,0,1,1,0,4.38Z"/><path class="cls-8" d="M715.66,373.12H693.74a2.19,2.19,0,0,1,0-4.38h21.92a2.19,2.19,0,1,1,0,4.38Z"/><path class="cls-8" d="M676.33,373.12H634.56a2.19,2.19,0,1,1,0-4.38h41.77a2.19,2.19,0,0,1,0,4.38Z"/><path class="cls-8" d="M755.23,355.58H713.47a2.19,2.19,0,1,1,0-4.38h41.76a2.19,2.19,0,0,1,0,4.38Z"/><path class="cls-8" d="M671.48,322.38H629.72a2.19,2.19,0,0,1,0-4.38h41.78a2.19,2.19,0,1,1,0,4.38Z"/><path class="cls-8" d="M674.92,335.19a2,2,0,0,1-1.21-3.52l10.7-8.31a3.93,3.93,0,0,0,.69-5.51,2.75,2.75,0,0,0-.22-.26l-9-9.72a2,2,0,0,1,2.87-2.68l0,0,13.33,14.43a2,2,0,0,1-.11,2.77.69.69,0,0,1-.13.11l-15.76,12.25A2,2,0,0,1,674.92,335.19Z"/><path class="cls-8" d="M627.6,335.19a2,2,0,0,0,1.21-3.52l-10.69-8.31a3.91,3.91,0,0,1-.69-5.51,2.65,2.65,0,0,1,.21-.26l9-9.72a2,2,0,0,0-2.88-2.66L610.4,319.64a2,2,0,0,0,.11,2.77l.13.11,15.76,12.25A2,2,0,0,0,627.6,335.19Z"/><path class="cls-8" d="M693.07,410.71H651.31a2.2,2.2,0,0,1,0-4.39h41.76a2.2,2.2,0,1,1,0,4.39Z"/><path class="cls-8" d="M700.43,421.55a2,2,0,0,1-1.2-3.51l10.69-8.32a3.91,3.91,0,0,0,.69-5.51c-.06-.09-.14-.17-.21-.26l-9-9.72a2,2,0,0,1,2.88-2.66L717.64,406a2,2,0,0,1-.11,2.78l-.13.11-15.76,12.25A2,2,0,0,1,700.43,421.55Z"/><path class="cls-8" d="M627.6,421.55a2,2,0,0,0,1.21-3.51l-10.69-8.32a3.91,3.91,0,0,1-.69-5.51c.06-.09.14-.17.21-.26l9-9.72a2,2,0,1,0-2.87-2.67h0L610.4,406a2,2,0,0,0,.11,2.78l.13.11,15.76,12.25A2,2,0,0,0,627.6,421.55Z"/><path class="cls-8" d="M631.33,415.41l8.78-20.08a2.19,2.19,0,0,1,4,1.75l-8.78,20.08a2.19,2.19,0,1,1-4-1.73v0Z"/></svg>